<svg width="20" height="20" viewBox="0 0 20 20" fill="none" xmlns="http://www.w3.org/2000/svg">
<path fill-rule="evenodd" clip-rule="evenodd" d="M19.5421 10.2274C19.5421 9.51837 19.4783 8.83637 19.3606 8.18237H9.9707V12.0504H15.3367C15.1054 13.3004 14.4025 14.3594 13.3466 15.0684V17.5774H16.569C18.4543 15.8364 19.5421 13.2734 19.5421 10.2274Z" fill="#4285F4"/>
<path fill-rule="evenodd" clip-rule="evenodd" d="M9.97051 20.0002C12.6625 20.0002 14.9187 19.1052 16.5688 17.5782L13.3464 15.0692C12.4541 15.6692 11.3115 16.0231 9.97051 16.0231C7.37328 16.0231 5.17584 14.2641 4.39119 11.9001H1.06055V14.4911C2.70124 17.7591 6.07316 20.0002 9.97051 20.0002Z" fill="#34A853"/>
<path fill-rule="evenodd" clip-rule="evenodd" d="M4.39187 11.9C4.19247 11.3 4.07881 10.659 4.07881 10C4.07881 9.34103 4.19247 8.70004 4.39187 8.10004V5.50903H1.06043C0.385247 6.85903 0 8.38603 0 10C0 11.614 0.385247 13.141 1.06043 14.491L4.39187 11.9Z" fill="#FBBC05"/>
<path fill-rule="evenodd" clip-rule="evenodd" d="M9.97051 3.97701C11.4341 3.97701 12.7482 4.48201 13.7811 5.47301L16.6416 2.605C14.9147 0.990996 12.6575 0 9.97051 0C6.07316 0 2.70124 2.241 1.06055 5.509L4.39119 8.10001C5.17584 5.73601 7.37328 3.97701 9.97051 3.97701Z" fill="#EA4335"/>
</svg>
